<svg version="1.1" xmlns="http://www.w3.org/2000/svg" viewBox="0 0 35 35"><!-- Created with: https://fietkau.software/qr --><rect x="0" y="0" width="35" height="35" fill="#00008b"></rect><path d="M1.5 1h6a.5 .5 0 0 1 .5 .5v6a.5 .5 0 0 1 -.5 .5h-6a.5 .5 0 0 1 -.5 -.5v-6a.5 .5 0 0 1 .5 -.5zM2 2.5v4a.5 .5 0 0 0 .5 .5h4a.5 .5 0 0 0 .5 -.5v-4a.5 .5 0 0 0 -.5 -.5h-4a.5 .5 0 0 0 -.5 .5zM27.5 1h6a.5 .5 0 0 1 .5 .5v6a.5 .5 0 0 1 -.5 .5h-6a.5 .5 0 0 1 -.5 -.5v-6a.5 .5 0 0 1 .5 -.5zM28 2.5v4a.5 .5 0 0 0 .5 .5h4a.5 .5 0 0 0 .5 -.5v-4a.5 .5 0 0 0 -.5 -.5h-4a.5 .5 0 0 0 -.5 .5zM1.5 27h6a.5 .5 0 0 1 .5 .5v6a.5 .5 0 0 1 -.5 .5h-6a.5 .5 0 0 1 -.5 -.5v-6a.5 .5 0 0 1 .5 -.5zM2 28.5v4a.5 .5 0 0 0 .5 .5h4a.5 .5 0 0 0 .5 -.5v-4a.5 .5 0 0 0 -.5 -.5h-4a.5 .5 0 0 0 -.5 .5z" fill="#ffbf00"></path><path d="M3.5 3h2a.5 .5 0 0 1 .5 .5v2a.5 .5 0 0 1 -.5 .5h-2a.5 .5 0 0 1 -.5 -.5v-2a.5 .5 0 0 1 .5 -.5zM29.5 3h2a.5 .5 0 0 1 .5 .5v2a.5 .5 0 0 1 -.5 .5h-2a.5 .5 0 0 1 -.5 -.5v-2a.5 .5 0 0 1 .5 -.5zM3.5 29h2a.5 .5 0 0 1 .5 .5v2a.5 .5 0 0 1 -.5 .5h-2a.5 .5 0 0 1 -.5 -.5v-2a.5 .5 0 0 1 .5 -.5z" fill="#ffbf00"></path><path d="M14.5 3a.5 .5 0 0 1 .5 .5a.5 .5 0 0 1 -.5 .5a.5 .5 0 0 1 -.5 -.5a.5 .5 0 0 1 .5 -.5zM15.5 4a.5 .5 0 0 1 .5 .5a.5 .5 0 0 1 -.5 .5a.5 .5 0 0 1 -.5 -.5a.5 .5 0 0 1 .5 -.5zM20.5 4a.5 .5 0 0 1 .5 .5a.5 .5 0 0 1 -.5 .5a.5 .5 0 0 1 -.5 -.5a.5 .5 0 0 1 .5 -.5zM13.5 5a.5 .5 0 0 1 .5 .5a.5 .5 0 0 1 -.5 .5a.5 .5 0 0 1 -.5 -.5a.5 .5 0 0 1 .5 -.5zM25.5 5a.5 .5 0 0 1 .5 .5a.5 .5 0 0 1 -.5 .5a.5 .5 0 0 1 -.5 -.5a.5 .5 0 0 1 .5 -.5zM14.5 6a.5 .5 0 0 1 .5 .5a.5 .5 0 0 1 -.5 .5a.5 .5 0 0 1 -.5 -.5a.5 .5 0 0 1 .5 -.5zM19.5 7a.5 .5 0 0 1 .5 .5a.5 .5 0 0 1 -.5 .5a.5 .5 0 0 1 -.5 -.5a.5 .5 0 0 1 .5 -.5zM23.5 7a.5 .5 0 0 1 .5 .5a.5 .5 0 0 1 -.5 .5a.5 .5 0 0 1 -.5 -.5a.5 .5 0 0 1 .5 -.5zM7.5 9a.5 .5 0 0 1 .5 .5a.5 .5 0 0 1 -.5 .5a.5 .5 0 0 1 -.5 -.5a.5 .5 0 0 1 .5 -.5zM24.5 10a.5 .5 0 0 1 .5 .5a.5 .5 0 0 1 -.5 .5a.5 .5 0 0 1 -.5 -.5a.5 .5 0 0 1 .5 -.5zM23.5 11a.5 .5 0 0 1 .5 .5a.5 .5 0 0 1 -.5 .5a.5 .5 0 0 1 -.5 -.5a.5 .5 0 0 1 .5 -.5zM13.5 12a.5 .5 0 0 1 .5 .5a.5 .5 0 0 1 -.5 .5a.5 .5 0 0 1 -.5 -.5a.5 .5 0 0 1 .5 -.5zM26.5 13a.5 .5 0 0 1 .5 .5a.5 .5 0 0 1 -.5 .5a.5 .5 0 0 1 -.5 -.5a.5 .5 0 0 1 .5 -.5zM28.5 13a.5 .5 0 0 1 .5 .5a.5 .5 0 0 1 -.5 .5a.5 .5 0 0 1 -.5 -.5a.5 .5 0 0 1 .5 -.5zM24.5 14a.5 .5 0 0 1 .5 .5a.5 .5 0 0 1 -.5 .5a.5 .5 0 0 1 -.5 -.5a.5 .5 0 0 1 .5 -.5zM33.5 14a.5 .5 0 0 1 .5 .5a.5 .5 0 0 1 -.5 .5a.5 .5 0 0 1 -.5 -.5a.5 .5 0 0 1 .5 -.5zM7.5 15a.5 .5 0 0 1 .5 .5a.5 .5 0 0 1 -.5 .5a.5 .5 0 0 1 -.5 -.5a.5 .5 0 0 1 .5 -.5zM5.5 16a.5 .5 0 0 1 .5 .5a.5 .5 0 0 1 -.5 .5a.5 .5 0 0 1 -.5 -.5a.5 .5 0 0 1 .5 -.5zM8.5 16a.5 .5 0 0 1 .5 .5a.5 .5 0 0 1 -.5 .5a.5 .5 0 0 1 -.5 -.5a.5 .5 0 0 1 .5 -.5zM3.5 17a.5 .5 0 0 1 .5 .5a.5 .5 0 0 1 -.5 .5a.5 .5 0 0 1 -.5 -.5a.5 .5 0 0 1 .5 -.5zM7.5 17a.5 .5 0 0 1 .5 .5a.5 .5 0 0 1 -.5 .5a.5 .5 0 0 1 -.5 -.5a.5 .5 0 0 1 .5 -.5zM2.5 18a.5 .5 0 0 1 .5 .5a.5 .5 0 0 1 -.5 .5a.5 .5 0 0 1 -.5 -.5a.5 .5 0 0 1 .5 -.5zM8.5 18a.5 .5 0 0 1 .5 .5a.5 .5 0 0 1 -.5 .5a.5 .5 0 0 1 -.5 -.5a.5 .5 0 0 1 .5 -.5zM27.5 18a.5 .5 0 0 1 .5 .5a.5 .5 0 0 1 -.5 .5a.5 .5 0 0 1 -.5 -.5a.5 .5 0 0 1 .5 -.5zM1.5 19a.5 .5 0 0 1 .5 .5a.5 .5 0 0 1 -.5 .5a.5 .5 0 0 1 -.5 -.5a.5 .5 0 0 1 .5 -.5zM28.5 19a.5 .5 0 0 1 .5 .5a.5 .5 0 0 1 -.5 .5a.5 .5 0 0 1 -.5 -.5a.5 .5 0 0 1 .5 -.5zM2.5 20a.5 .5 0 0 1 .5 .5a.5 .5 0 0 1 -.5 .5a.5 .5 0 0 1 -.5 -.5a.5 .5 0 0 1 .5 -.5zM23.5 21a.5 .5 0 0 1 .5 .5a.5 .5 0 0 1 -.5 .5a.5 .5 0 0 1 -.5 -.5a.5 .5 0 0 1 .5 -.5zM26.5 22a.5 .5 0 0 1 .5 .5a.5 .5 0 0 1 -.5 .5a.5 .5 0 0 1 -.5 -.5a.5 .5 0 0 1 .5 -.5zM7.5 23a.5 .5 0 0 1 .5 .5a.5 .5 0 0 1 -.5 .5a.5 .5 0 0 1 -.5 -.5a.5 .5 0 0 1 .5 -.5zM22.5 24a.5 .5 0 0 1 .5 .5a.5 .5 0 0 1 -.5 .5a.5 .5 0 0 1 -.5 -.5a.5 .5 0 0 1 .5 -.5zM7.5 25a.5 .5 0 0 1 .5 .5a.5 .5 0 0 1 -.5 .5a.5 .5 0 0 1 -.5 -.5a.5 .5 0 0 1 .5 -.5zM9.5 26a.5 .5 0 0 1 .5 .5a.5 .5 0 0 1 -.5 .5a.5 .5 0 0 1 -.5 -.5a.5 .5 0 0 1 .5 -.5zM27.5 27a.5 .5 0 0 1 .5 .5a.5 .5 0 0 1 -.5 .5a.5 .5 0 0 1 -.5 -.5a.5 .5 0 0 1 .5 -.5zM23.5 30a.5 .5 0 0 1 .5 .5a.5 .5 0 0 1 -.5 .5a.5 .5 0 0 1 -.5 -.5a.5 .5 0 0 1 .5 -.5zM28.5 32a.5 .5 0 0 1 .5 .5a.5 .5 0 0 1 -.5 .5a.5 .5 0 0 1 -.5 -.5a.5 .5 0 0 1 .5 -.5z" fill="#ffbf00"></path><path d="M9.5 1a.5 .5 0 0 1 .5 .5a.5 .5 0 0 1 -.5 .5a.5 .5 0 0 1 -.5 -.5a.5 .5 0 0 1 .5 -.5zM10.5 1a.5 .5 0 0 1 .5 .5a.5 .5 0 0 1 -.5 .5a.5 .5 0 0 1 -.5 -.5a.5 .5 0 0 1 .5 -.5zM11.5 1a.5 .5 0 0 1 .5 .5a.5 .5 0 0 1 -.5 .5a.5 .5 0 0 1 -.5 -.5a.5 .5 0 0 1 .5 -.5zM13.5 1a.5 .5 0 0 1 .5 .5a.5 .5 0 0 1 -.5 .5a.5 .5 0 0 1 -.5 -.5a.5 .5 0 0 1 .5 -.5zM18.5 1a.5 .5 0 0 1 .5 .5a.5 .5 0 0 1 -.5 .5a.5 .5 0 0 1 -.5 -.5a.5 .5 0 0 1 .5 -.5zM19.5 1a.5 .5 0 0 1 .5 .5a.5 .5 0 0 1 -.5 .5a.5 .5 0 0 1 -.5 -.5a.5 .5 0 0 1 .5 -.5zM22.5 1a.5 .5 0 0 1 .5 .5a.5 .5 0 0 1 -.5 .5a.5 .5 0 0 1 -.5 -.5a.5 .5 0 0 1 .5 -.5zM24.5 1a.5 .5 0 0 1 .5 .5a.5 .5 0 0 1 -.5 .5a.5 .5 0 0 1 -.5 -.5a.5 .5 0 0 1 .5 -.5zM25.5 1a.5 .5 0 0 1 .5 .5a.5 .5 0 0 1 -.5 .5a.5 .5 0 0 1 -.5 -.5a.5 .5 0 0 1 .5 -.5zM9.5 2a.5 .5 0 0 1 .5 .5a.5 .5 0 0 1 -.5 .5a.5 .5 0 0 1 -.5 -.5a.5 .5 0 0 1 .5 -.5zM12.5 2a.5 .5 0 0 1 .5 .5a.5 .5 0 0 1 -.5 .5a.5 .5 0 0 1 -.5 -.5a.5 .5 0 0 1 .5 -.5zM13.5 2a.5 .5 0 0 1 .5 .5a.5 .5 0 0 1 -.5 .5a.5 .5 0 0 1 -.5 -.5a.5 .5 0 0 1 .5 -.5zM16.5 2a.5 .5 0 0 1 .5 .5a.5 .5 0 0 1 -.5 .5a.5 .5 0 0 1 -.5 -.5a.5 .5 0 0 1 .5 -.5zM19.5 2a.5 .5 0 0 1 .5 .5a.5 .5 0 0 1 -.5 .5a.5 .5 0 0 1 -.5 -.5a.5 .5 0 0 1 .5 -.5zM20.5 2a.5 .5 0 0 1 .5 .5a.5 .5 0 0 1 -.5 .5a.5 .5 0 0 1 -.5 -.5a.5 .5 0 0 1 .5 -.5zM22.5 2a.5 .5 0 0 1 .5 .5a.5 .5 0 0 1 -.5 .5a.5 .5 0 0 1 -.5 -.5a.5 .5 0 0 1 .5 -.5zM25.5 2a.5 .5 0 0 1 .5 .5a.5 .5 0 0 1 -.5 .5a.5 .5 0 0 1 -.5 -.5a.5 .5 0 0 1 .5 -.5zM9.5 3a.5 .5 0 0 1 .5 .5a.5 .5 0 0 1 -.5 .5a.5 .5 0 0 1 -.5 -.5a.5 .5 0 0 1 .5 -.5zM11.5 3a.5 .5 0 0 1 .5 .5a.5 .5 0 0 1 -.5 .5a.5 .5 0 0 1 -.5 -.5a.5 .5 0 0 1 .5 -.5zM12.5 3a.5 .5 0 0 1 .5 .5a.5 .5 0 0 1 -.5 .5a.5 .5 0 0 1 -.5 -.5a.5 .5 0 0 1 .5 -.5zM16.5 3a.5 .5 0 0 1 .5 .5a.5 .5 0 0 1 -.5 .5a.5 .5 0 0 1 -.5 -.5a.5 .5 0 0 1 .5 -.5zM19.5 3a.5 .5 0 0 1 .5 .5a.5 .5 0 0 1 -.5 .5a.5 .5 0 0 1 -.5 -.5a.5 .5 0 0 1 .5 -.5zM21.5 3a.5 .5 0 0 1 .5 .5a.5 .5 0 0 1 -.5 .5a.5 .5 0 0 1 -.5 -.5a.5 .5 0 0 1 .5 -.5zM22.5 3a.5 .5 0 0 1 .5 .5a.5 .5 0 0 1 -.5 .5a.5 .5 0 0 1 -.5 -.5a.5 .5 0 0 1 .5 -.5zM24.5 3a.5 .5 0 0 1 .5 .5a.5 .5 0 0 1 -.5 .5a.5 .5 0 0 1 -.5 -.5a.5 .5 0 0 1 .5 -.5zM25.5 3a.5 .5 0 0 1 .5 .5a.5 .5 0 0 1 -.5 .5a.5 .5 0 0 1 -.5 -.5a.5 .5 0 0 1 .5 -.5zM10.5 4a.5 .5 0 0 1 .5 .5a.5 .5 0 0 1 -.5 .5a.5 .5 0 0 1 -.5 -.5a.5 .5 0 0 1 .5 -.5zM11.5 4a.5 .5 0 0 1 .5 .5a.5 .5 0 0 1 -.5 .5a.5 .5 0 0 1 -.5 -.5a.5 .5 0 0 1 .5 -.5zM18.5 4a.5 .5 0 0 1 .5 .5a.5 .5 0 0 1 -.5 .5a.5 .5 0 0 1 -.5 -.5a.5 .5 0 0 1 .5 -.5zM23.5 4a.5 .5 0 0 1 .5 .5a.5 .5 0 0 1 -.5 .5a.5 .5 0 0 1 -.5 -.5a.5 .5 0 0 1 .5 -.5zM24.5 4a.5 .5 0 0 1 .5 .5a.5 .5 0 0 1 -.5 .5a.5 .5 0 0 1 -.5 -.5a.5 .5 0 0 1 .5 -.5zM10.5 5a.5 .5 0 0 1 .5 .5a.5 .5 0 0 1 -.5 .5a.5 .5 0 0 1 -.5 -.5a.5 .5 0 0 1 .5 -.5zM11.5 5a.5 .5 0 0 1 .5 .5a.5 .5 0 0 1 -.5 .5a.5 .5 0 0 1 -.5 -.5a.5 .5 0 0 1 .5 -.5zM16.5 5a.5 .5 0 0 1 .5 .5a.5 .5 0 0 1 -.5 .5a.5 .5 0 0 1 -.5 -.5a.5 .5 0 0 1 .5 -.5zM18.5 5a.5 .5 0 0 1 .5 .5a.5 .5 0 0 1 -.5 .5a.5 .5 0 0 1 -.5 -.5a.5 .5 0 0 1 .5 -.5zM19.5 5a.5 .5 0 0 1 .5 .5a.5 .5 0 0 1 -.5 .5a.5 .5 0 0 1 -.5 -.5a.5 .5 0 0 1 .5 -.5zM9.5 6a.5 .5 0 0 1 .5 .5a.5 .5 0 0 1 -.5 .5a.5 .5 0 0 1 -.5 -.5a.5 .5 0 0 1 .5 -.5zM11.5 6a.5 .5 0 0 1 .5 .5a.5 .5 0 0 1 -.5 .5a.5 .5 0 0 1 -.5 -.5a.5 .5 0 0 1 .5 -.5zM16.5 6a.5 .5 0 0 1 .5 .5a.5 .5 0 0 1 -.5 .5a.5 .5 0 0 1 -.5 -.5a.5 .5 0 0 1 .5 -.5zM17.5 6a.5 .5 0 0 1 .5 .5a.5 .5 0 0 1 -.5 .5a.5 .5 0 0 1 -.5 -.5a.5 .5 0 0 1 .5 -.5zM18.5 6a.5 .5 0 0 1 .5 .5a.5 .5 0 0 1 -.5 .5a.5 .5 0 0 1 -.5 -.5a.5 .5 0 0 1 .5 -.5zM20.5 6a.5 .5 0 0 1 .5 .5a.5 .5 0 0 1 -.5 .5a.5 .5 0 0 1 -.5 -.5a.5 .5 0 0 1 .5 -.5zM21.5 6a.5 .5 0 0 1 .5 .5a.5 .5 0 0 1 -.5 .5a.5 .5 0 0 1 -.5 -.5a.5 .5 0 0 1 .5 -.5zM22.5 6a.5 .5 0 0 1 .5 .5a.5 .5 0 0 1 -.5 .5a.5 .5 0 0 1 -.5 -.5a.5 .5 0 0 1 .5 -.5zM9.5 7a.5 .5 0 0 1 .5 .5a.5 .5 0 0 1 -.5 .5a.5 .5 0 0 1 -.5 -.5a.5 .5 0 0 1 .5 -.5zM11.5 7a.5 .5 0 0 1 .5 .5a.5 .5 0 0 1 -.5 .5a.5 .5 0 0 1 -.5 -.5a.5 .5 0 0 1 .5 -.5zM13.5 7a.5 .5 0 0 1 .5 .5a.5 .5 0 0 1 -.5 .5a.5 .5 0 0 1 -.5 -.5a.5 .5 0 0 1 .5 -.5zM15.5 7a.5 .5 0 0 1 .5 .5a.5 .5 0 0 1 -.5 .5a.5 .5 0 0 1 -.5 -.5a.5 .5 0 0 1 .5 -.5zM17.5 7a.5 .5 0 0 1 .5 .5a.5 .5 0 0 1 -.5 .5a.5 .5 0 0 1 -.5 -.5a.5 .5 0 0 1 .5 -.5zM21.5 7a.5 .5 0 0 1 .5 .5a.5 .5 0 0 1 -.5 .5a.5 .5 0 0 1 -.5 -.5a.5 .5 0 0 1 .5 -.5zM25.5 7a.5 .5 0 0 1 .5 .5a.5 .5 0 0 1 -.5 .5a.5 .5 0 0 1 -.5 -.5a.5 .5 0 0 1 .5 -.5zM9.5 8a.5 .5 0 0 1 .5 .5a.5 .5 0 0 1 -.5 .5a.5 .5 0 0 1 -.5 -.5a.5 .5 0 0 1 .5 -.5zM12.5 8a.5 .5 0 0 1 .5 .5a.5 .5 0 0 1 -.5 .5a.5 .5 0 0 1 -.5 -.5a.5 .5 0 0 1 .5 -.5zM13.5 8a.5 .5 0 0 1 .5 .5a.5 .5 0 0 1 -.5 .5a.5 .5 0 0 1 -.5 -.5a.5 .5 0 0 1 .5 -.5zM15.5 8a.5 .5 0 0 1 .5 .5a.5 .5 0 0 1 -.5 .5a.5 .5 0 0 1 -.5 -.5a.5 .5 0 0 1 .5 -.5zM16.5 8a.5 .5 0 0 1 .5 .5a.5 .5 0 0 1 -.5 .5a.5 .5 0 0 1 -.5 -.5a.5 .5 0 0 1 .5 -.5zM17.5 8a.5 .5 0 0 1 .5 .5a.5 .5 0 0 1 -.5 .5a.5 .5 0 0 1 -.5 -.5a.5 .5 0 0 1 .5 -.5zM18.5 8a.5 .5 0 0 1 .5 .5a.5 .5 0 0 1 -.5 .5a.5 .5 0 0 1 -.5 -.5a.5 .5 0 0 1 .5 -.5zM20.5 8a.5 .5 0 0 1 .5 .5a.5 .5 0 0 1 -.5 .5a.5 .5 0 0 1 -.5 -.5a.5 .5 0 0 1 .5 -.5zM21.5 8a.5 .5 0 0 1 .5 .5a.5 .5 0 0 1 -.5 .5a.5 .5 0 0 1 -.5 -.5a.5 .5 0 0 1 .5 -.5zM22.5 8a.5 .5 0 0 1 .5 .5a.5 .5 0 0 1 -.5 .5a.5 .5 0 0 1 -.5 -.5a.5 .5 0 0 1 .5 -.5zM25.5 8a.5 .5 0 0 1 .5 .5a.5 .5 0 0 1 -.5 .5a.5 .5 0 0 1 -.5 -.5a.5 .5 0 0 1 .5 -.5zM3.5 9a.5 .5 0 0 1 .5 .5a.5 .5 0 0 1 -.5 .5a.5 .5 0 0 1 -.5 -.5a.5 .5 0 0 1 .5 -.5zM4.5 9a.5 .5 0 0 1 .5 .5a.5 .5 0 0 1 -.5 .5a.5 .5 0 0 1 -.5 -.5a.5 .5 0 0 1 .5 -.5zM5.5 9a.5 .5 0 0 1 .5 .5a.5 .5 0 0 1 -.5 .5a.5 .5 0 0 1 -.5 -.5a.5 .5 0 0 1 .5 -.5zM9.5 9a.5 .5 0 0 1 .5 .5a.5 .5 0 0 1 -.5 .5a.5 .5 0 0 1 -.5 -.5a.5 .5 0 0 1 .5 -.5zM11.5 9a.5 .5 0 0 1 .5 .5a.5 .5 0 0 1 -.5 .5a.5 .5 0 0 1 -.5 -.5a.5 .5 0 0 1 .5 -.5zM15.5 9a.5 .5 0 0 1 .5 .5a.5 .5 0 0 1 -.5 .5a.5 .5 0 0 1 -.5 -.5a.5 .5 0 0 1 .5 -.5zM18.5 9a.5 .5 0 0 1 .5 .5a.5 .5 0 0 1 -.5 .5a.5 .5 0 0 1 -.5 -.5a.5 .5 0 0 1 .5 -.5zM19.5 9a.5 .5 0 0 1 .5 .5a.5 .5 0 0 1 -.5 .5a.5 .5 0 0 1 -.5 -.5a.5 .5 0 0 1 .5 -.5zM26.5 9a.5 .5 0 0 1 .5 .5a.5 .5 0 0 1 -.5 .5a.5 .5 0 0 1 -.5 -.5a.5 .5 0 0 1 .5 -.5zM27.5 9a.5 .5 0 0 1 .5 .5a.5 .5 0 0 1 -.5 .5a.5 .5 0 0 1 -.5 -.5a.5 .5 0 0 1 .5 -.5zM28.5 9a.5 .5 0 0 1 .5 .5a.5 .5 0 0 1 -.5 .5a.5 .5 0 0 1 -.5 -.5a.5 .5 0 0 1 .5 -.5zM31.5 9a.5 .5 0 0 1 .5 .5a.5 .5 0 0 1 -.5 .5a.5 .5 0 0 1 -.5 -.5a.5 .5 0 0 1 .5 -.5zM32.5 9a.5 .5 0 0 1 .5 .5a.5 .5 0 0 1 -.5 .5a.5 .5 0 0 1 -.5 -.5a.5 .5 0 0 1 .5 -.5zM33.5 9a.5 .5 0 0 1 .5 .5a.5 .5 0 0 1 -.5 .5a.5 .5 0 0 1 -.5 -.5a.5 .5 0 0 1 .5 -.5zM3.5 10a.5 .5 0 0 1 .5 .5a.5 .5 0 0 1 -.5 .5a.5 .5 0 0 1 -.5 -.5a.5 .5 0 0 1 .5 -.5zM6.5 10a.5 .5 0 0 1 .5 .5a.5 .5 0 0 1 -.5 .5a.5 .5 0 0 1 -.5 -.5a.5 .5 0 0 1 .5 -.5zM11.5 10a.5 .5 0 0 1 .5 .5a.5 .5 0 0 1 -.5 .5a.5 .5 0 0 1 -.5 -.5a.5 .5 0 0 1 .5 -.5zM12.5 10a.5 .5 0 0 1 .5 .5a.5 .5 0 0 1 -.5 .5a.5 .5 0 0 1 -.5 -.5a.5 .5 0 0 1 .5 -.5zM13.5 10a.5 .5 0 0 1 .5 .5a.5 .5 0 0 1 -.5 .5a.5 .5 0 0 1 -.5 -.5a.5 .5 0 0 1 .5 -.5zM14.5 10a.5 .5 0 0 1 .5 .5a.5 .5 0 0 1 -.5 .5a.5 .5 0 0 1 -.5 -.5a.5 .5 0 0 1 .5 -.5zM16.5 10a.5 .5 0 0 1 .5 .5a.5 .5 0 0 1 -.5 .5a.5 .5 0 0 1 -.5 -.5a.5 .5 0 0 1 .5 -.5zM18.5 10a.5 .5 0 0 1 .5 .5a.5 .5 0 0 1 -.5 .5a.5 .5 0 0 1 -.5 -.5a.5 .5 0 0 1 .5 -.5zM21.5 10a.5 .5 0 0 1 .5 .5a.5 .5 0 0 1 -.5 .5a.5 .5 0 0 1 -.5 -.5a.5 .5 0 0 1 .5 -.5zM26.5 10a.5 .5 0 0 1 .5 .5a.5 .5 0 0 1 -.5 .5a.5 .5 0 0 1 -.5 -.5a.5 .5 0 0 1 .5 -.5zM27.5 10a.5 .5 0 0 1 .5 .5a.5 .5 0 0 1 -.5 .5a.5 .5 0 0 1 -.5 -.5a.5 .5 0 0 1 .5 -.5zM30.5 10a.5 .5 0 0 1 .5 .5a.5 .5 0 0 1 -.5 .5a.5 .5 0 0 1 -.5 -.5a.5 .5 0 0 1 .5 -.5zM31.5 10a.5 .5 0 0 1 .5 .5a.5 .5 0 0 1 -.5 .5a.5 .5 0 0 1 -.5 -.5a.5 .5 0 0 1 .5 -.5zM32.5 10a.5 .5 0 0 1 .5 .5a.5 .5 0 0 1 -.5 .5a.5 .5 0 0 1 -.5 -.5a.5 .5 0 0 1 .5 -.5zM33.5 10a.5 .5 0 0 1 .5 .5a.5 .5 0 0 1 -.5 .5a.5 .5 0 0 1 -.5 -.5a.5 .5 0 0 1 .5 -.5zM2.5 11a.5 .5 0 0 1 .5 .5a.5 .5 0 0 1 -.5 .5a.5 .5 0 0 1 -.5 -.5a.5 .5 0 0 1 .5 -.5zM6.5 11a.5 .5 0 0 1 .5 .5a.5 .5 0 0 1 -.5 .5a.5 .5 0 0 1 -.5 -.5a.5 .5 0 0 1 .5 -.5zM7.5 11a.5 .5 0 0 1 .5 .5a.5 .5 0 0 1 -.5 .5a.5 .5 0 0 1 -.5 -.5a.5 .5 0 0 1 .5 -.5zM8.5 11a.5 .5 0 0 1 .5 .5a.5 .5 0 0 1 -.5 .5a.5 .5 0 0 1 -.5 -.5a.5 .5 0 0 1 .5 -.5zM10.5 11a.5 .5 0 0 1 .5 .5a.5 .5 0 0 1 -.5 .5a.5 .5 0 0 1 -.5 -.5a.5 .5 0 0 1 .5 -.5zM15.5 11a.5 .5 0 0 1 .5 .5a.5 .5 0 0 1 -.5 .5a.5 .5 0 0 1 -.5 -.5a.5 .5 0 0 1 .5 -.5zM16.5 11a.5 .5 0 0 1 .5 .5a.5 .5 0 0 1 -.5 .5a.5 .5 0 0 1 -.5 -.5a.5 .5 0 0 1 .5 -.5zM17.5 11a.5 .5 0 0 1 .5 .5a.5 .5 0 0 1 -.5 .5a.5 .5 0 0 1 -.5 -.5a.5 .5 0 0 1 .5 -.5zM21.5 11a.5 .5 0 0 1 .5 .5a.5 .5 0 0 1 -.5 .5a.5 .5 0 0 1 -.5 -.5a.5 .5 0 0 1 .5 -.5zM26.5 11a.5 .5 0 0 1 .5 .5a.5 .5 0 0 1 -.5 .5a.5 .5 0 0 1 -.5 -.5a.5 .5 0 0 1 .5 -.5zM27.5 11a.5 .5 0 0 1 .5 .5a.5 .5 0 0 1 -.5 .5a.5 .5 0 0 1 -.5 -.5a.5 .5 0 0 1 .5 -.5zM28.5 11a.5 .5 0 0 1 .5 .5a.5 .5 0 0 1 -.5 .5a.5 .5 0 0 1 -.5 -.5a.5 .5 0 0 1 .5 -.5zM30.5 11a.5 .5 0 0 1 .5 .5a.5 .5 0 0 1 -.5 .5a.5 .5 0 0 1 -.5 -.5a.5 .5 0 0 1 .5 -.5zM31.5 11a.5 .5 0 0 1 .5 .5a.5 .5 0 0 1 -.5 .5a.5 .5 0 0 1 -.5 -.5a.5 .5 0 0 1 .5 -.5zM32.5 11a.5 .5 0 0 1 .5 .5a.5 .5 0 0 1 -.5 .5a.5 .5 0 0 1 -.5 -.5a.5 .5 0 0 1 .5 -.5zM1.5 12a.5 .5 0 0 1 .5 .5a.5 .5 0 0 1 -.5 .5a.5 .5 0 0 1 -.5 -.5a.5 .5 0 0 1 .5 -.5zM2.5 12a.5 .5 0 0 1 .5 .5a.5 .5 0 0 1 -.5 .5a.5 .5 0 0 1 -.5 -.5a.5 .5 0 0 1 .5 -.5zM5.5 12a.5 .5 0 0 1 .5 .5a.5 .5 0 0 1 -.5 .5a.5 .5 0 0 1 -.5 -.5a.5 .5 0 0 1 .5 -.5zM6.5 12a.5 .5 0 0 1 .5 .5a.5 .5 0 0 1 -.5 .5a.5 .5 0 0 1 -.5 -.5a.5 .5 0 0 1 .5 -.5zM8.5 12a.5 .5 0 0 1 .5 .5a.5 .5 0 0 1 -.5 .5a.5 .5 0 0 1 -.5 -.5a.5 .5 0 0 1 .5 -.5zM10.5 12a.5 .5 0 0 1 .5 .5a.5 .5 0 0 1 -.5 .5a.5 .5 0 0 1 -.5 -.5a.5 .5 0 0 1 .5 -.5zM11.5 12a.5 .5 0 0 1 .5 .5a.5 .5 0 0 1 -.5 .5a.5 .5 0 0 1 -.5 -.5a.5 .5 0 0 1 .5 -.5zM17.5 12a.5 .5 0 0 1 .5 .5a.5 .5 0 0 1 -.5 .5a.5 .5 0 0 1 -.5 -.5a.5 .5 0 0 1 .5 -.5zM19.5 12a.5 .5 0 0 1 .5 .5a.5 .5 0 0 1 -.5 .5a.5 .5 0 0 1 -.5 -.5a.5 .5 0 0 1 .5 -.5zM20.5 12a.5 .5 0 0 1 .5 .5a.5 .5 0 0 1 -.5 .5a.5 .5 0 0 1 -.5 -.5a.5 .5 0 0 1 .5 -.5zM27.5 12a.5 .5 0 0 1 .5 .5a.5 .5 0 0 1 -.5 .5a.5 .5 0 0 1 -.5 -.5a.5 .5 0 0 1 .5 -.5zM30.5 12a.5 .5 0 0 1 .5 .5a.5 .5 0 0 1 -.5 .5a.5 .5 0 0 1 -.5 -.5a.5 .5 0 0 1 .5 -.5zM31.5 12a.5 .5 0 0 1 .5 .5a.5 .5 0 0 1 -.5 .5a.5 .5 0 0 1 -.5 -.5a.5 .5 0 0 1 .5 -.5zM32.5 12a.5 .5 0 0 1 .5 .5a.5 .5 0 0 1 -.5 .5a.5 .5 0 0 1 -.5 -.5a.5 .5 0 0 1 .5 -.5zM33.5 12a.5 .5 0 0 1 .5 .5a.5 .5 0 0 1 -.5 .5a.5 .5 0 0 1 -.5 -.5a.5 .5 0 0 1 .5 -.5zM1.5 13a.5 .5 0 0 1 .5 .5a.5 .5 0 0 1 -.5 .5a.5 .5 0 0 1 -.5 -.5a.5 .5 0 0 1 .5 -.5zM6.5 13a.5 .5 0 0 1 .5 .5a.5 .5 0 0 1 -.5 .5a.5 .5 0 0 1 -.5 -.5a.5 .5 0 0 1 .5 -.5zM7.5 13a.5 .5 0 0 1 .5 .5a.5 .5 0 0 1 -.5 .5a.5 .5 0 0 1 -.5 -.5a.5 .5 0 0 1 .5 -.5zM9.5 13a.5 .5 0 0 1 .5 .5a.5 .5 0 0 1 -.5 .5a.5 .5 0 0 1 -.5 -.5a.5 .5 0 0 1 .5 -.5zM10.5 13a.5 .5 0 0 1 .5 .5a.5 .5 0 0 1 -.5 .5a.5 .5 0 0 1 -.5 -.5a.5 .5 0 0 1 .5 -.5zM11.5 13a.5 .5 0 0 1 .5 .5a.5 .5 0 0 1 -.5 .5a.5 .5 0 0 1 -.5 -.5a.5 .5 0 0 1 .5 -.5zM12.5 13a.5 .5 0 0 1 .5 .5a.5 .5 0 0 1 -.5 .5a.5 .5 0 0 1 -.5 -.5a.5 .5 0 0 1 .5 -.5zM14.5 13a.5 .5 0 0 1 .5 .5a.5 .5 0 0 1 -.5 .5a.5 .5 0 0 1 -.5 -.5a.5 .5 0 0 1 .5 -.5zM15.5 13a.5 .5 0 0 1 .5 .5a.5 .5 0 0 1 -.5 .5a.5 .5 0 0 1 -.5 -.5a.5 .5 0 0 1 .5 -.5zM16.5 13a.5 .5 0 0 1 .5 .5a.5 .5 0 0 1 -.5 .5a.5 .5 0 0 1 -.5 -.5a.5 .5 0 0 1 .5 -.5zM19.5 13a.5 .5 0 0 1 .5 .5a.5 .5 0 0 1 -.5 .5a.5 .5 0 0 1 -.5 -.5a.5 .5 0 0 1 .5 -.5zM20.5 13a.5 .5 0 0 1 .5 .5a.5 .5 0 0 1 -.5 .5a.5 .5 0 0 1 -.5 -.5a.5 .5 0 0 1 .5 -.5zM22.5 13a.5 .5 0 0 1 .5 .5a.5 .5 0 0 1 -.5 .5a.5 .5 0 0 1 -.5 -.5a.5 .5 0 0 1 .5 -.5zM23.5 13a.5 .5 0 0 1 .5 .5a.5 .5 0 0 1 -.5 .5a.5 .5 0 0 1 -.5 -.5a.5 .5 0 0 1 .5 -.5zM32.5 13a.5 .5 0 0 1 .5 .5a.5 .5 0 0 1 -.5 .5a.5 .5 0 0 1 -.5 -.5a.5 .5 0 0 1 .5 -.5zM2.5 14a.5 .5 0 0 1 .5 .5a.5 .5 0 0 1 -.5 .5a.5 .5 0 0 1 -.5 -.5a.5 .5 0 0 1 .5 -.5zM3.5 14a.5 .5 0 0 1 .5 .5a.5 .5 0 0 1 -.5 .5a.5 .5 0 0 1 -.5 -.5a.5 .5 0 0 1 .5 -.5zM4.5 14a.5 .5 0 0 1 .5 .5a.5 .5 0 0 1 -.5 .5a.5 .5 0 0 1 -.5 -.5a.5 .5 0 0 1 .5 -.5zM6.5 14a.5 .5 0 0 1 .5 .5a.5 .5 0 0 1 -.5 .5a.5 .5 0 0 1 -.5 -.5a.5 .5 0 0 1 .5 -.5zM8.5 14a.5 .5 0 0 1 .5 .5a.5 .5 0 0 1 -.5 .5a.5 .5 0 0 1 -.5 -.5a.5 .5 0 0 1 .5 -.5zM9.5 14a.5 .5 0 0 1 .5 .5a.5 .5 0 0 1 -.5 .5a.5 .5 0 0 1 -.5 -.5a.5 .5 0 0 1 .5 -.5zM11.5 14a.5 .5 0 0 1 .5 .5a.5 .5 0 0 1 -.5 .5a.5 .5 0 0 1 -.5 -.5a.5 .5 0 0 1 .5 -.5zM12.5 14a.5 .5 0 0 1 .5 .5a.5 .5 0 0 1 -.5 .5a.5 .5 0 0 1 -.5 -.5a.5 .5 0 0 1 .5 -.5zM13.5 14a.5 .5 0 0 1 .5 .5a.5 .5 0 0 1 -.5 .5a.5 .5 0 0 1 -.5 -.5a.5 .5 0 0 1 .5 -.5zM14.5 14a.5 .5 0 0 1 .5 .5a.5 .5 0 0 1 -.5 .5a.5 .5 0 0 1 -.5 -.5a.5 .5 0 0 1 .5 -.5zM15.5 14a.5 .5 0 0 1 .5 .5a.5 .5 0 0 1 -.5 .5a.5 .5 0 0 1 -.5 -.5a.5 .5 0 0 1 .5 -.5zM17.5 14a.5 .5 0 0 1 .5 .5a.5 .5 0 0 1 -.5 .5a.5 .5 0 0 1 -.5 -.5a.5 .5 0 0 1 .5 -.5zM19.5 14a.5 .5 0 0 1 .5 .5a.5 .5 0 0 1 -.5 .5a.5 .5 0 0 1 -.5 -.5a.5 .5 0 0 1 .5 -.5zM20.5 14a.5 .5 0 0 1 .5 .5a.5 .5 0 0 1 -.5 .5a.5 .5 0 0 1 -.5 -.5a.5 .5 0 0 1 .5 -.5zM21.5 14a.5 .5 0 0 1 .5 .5a.5 .5 0 0 1 -.5 .5a.5 .5 0 0 1 -.5 -.5a.5 .5 0 0 1 .5 -.5zM27.5 14a.5 .5 0 0 1 .5 .5a.5 .5 0 0 1 -.5 .5a.5 .5 0 0 1 -.5 -.5a.5 .5 0 0 1 .5 -.5zM29.5 14a.5 .5 0 0 1 .5 .5a.5 .5 0 0 1 -.5 .5a.5 .5 0 0 1 -.5 -.5a.5 .5 0 0 1 .5 -.5zM30.5 14a.5 .5 0 0 1 .5 .5a.5 .5 0 0 1 -.5 .5a.5 .5 0 0 1 -.5 -.5a.5 .5 0 0 1 .5 -.5zM31.5 14a.5 .5 0 0 1 .5 .5a.5 .5 0 0 1 -.5 .5a.5 .5 0 0 1 -.5 -.5a.5 .5 0 0 1 .5 -.5zM2.5 15a.5 .5 0 0 1 .5 .5a.5 .5 0 0 1 -.5 .5a.5 .5 0 0 1 -.5 -.5a.5 .5 0 0 1 .5 -.5zM3.5 15a.5 .5 0 0 1 .5 .5a.5 .5 0 0 1 -.5 .5a.5 .5 0 0 1 -.5 -.5a.5 .5 0 0 1 .5 -.5zM4.5 15a.5 .5 0 0 1 .5 .5a.5 .5 0 0 1 -.5 .5a.5 .5 0 0 1 -.5 -.5a.5 .5 0 0 1 .5 -.5zM10.5 15a.5 .5 0 0 1 .5 .5a.5 .5 0 0 1 -.5 .5a.5 .5 0 0 1 -.5 -.5a.5 .5 0 0 1 .5 -.5zM11.5 15a.5 .5 0 0 1 .5 .5a.5 .5 0 0 1 -.5 .5a.5 .5 0 0 1 -.5 -.5a.5 .5 0 0 1 .5 -.5zM16.5 15a.5 .5 0 0 1 .5 .5a.5 .5 0 0 1 -.5 .5a.5 .5 0 0 1 -.5 -.5a.5 .5 0 0 1 .5 -.5zM17.5 15a.5 .5 0 0 1 .5 .5a.5 .5 0 0 1 -.5 .5a.5 .5 0 0 1 -.5 -.5a.5 .5 0 0 1 .5 -.5zM20.5 15a.5 .5 0 0 1 .5 .5a.5 .5 0 0 1 -.5 .5a.5 .5 0 0 1 -.5 -.5a.5 .5 0 0 1 .5 -.5zM23.5 15a.5 .5 0 0 1 .5 .5a.5 .5 0 0 1 -.5 .5a.5 .5 0 0 1 -.5 -.5a.5 .5 0 0 1 .5 -.5zM25.5 15a.5 .5 0 0 1 .5 .5a.5 .5 0 0 1 -.5 .5a.5 .5 0 0 1 -.5 -.5a.5 .5 0 0 1 .5 -.5zM27.5 15a.5 .5 0 0 1 .5 .5a.5 .5 0 0 1 -.5 .5a.5 .5 0 0 1 -.5 -.5a.5 .5 0 0 1 .5 -.5zM28.5 15a.5 .5 0 0 1 .5 .5a.5 .5 0 0 1 -.5 .5a.5 .5 0 0 1 -.5 -.5a.5 .5 0 0 1 .5 -.5zM29.5 15a.5 .5 0 0 1 .5 .5a.5 .5 0 0 1 -.5 .5a.5 .5 0 0 1 -.5 -.5a.5 .5 0 0 1 .5 -.5zM30.5 15a.5 .5 0 0 1 .5 .5a.5 .5 0 0 1 -.5 .5a.5 .5 0 0 1 -.5 -.5a.5 .5 0 0 1 .5 -.5zM31.5 15a.5 .5 0 0 1 .5 .5a.5 .5 0 0 1 -.5 .5a.5 .5 0 0 1 -.5 -.5a.5 .5 0 0 1 .5 -.5zM32.5 15a.5 .5 0 0 1 .5 .5a.5 .5 0 0 1 -.5 .5a.5 .5 0 0 1 -.5 -.5a.5 .5 0 0 1 .5 -.5zM1.5 16a.5 .5 0 0 1 .5 .5a.5 .5 0 0 1 -.5 .5a.5 .5 0 0 1 -.5 -.5a.5 .5 0 0 1 .5 -.5zM11.5 16a.5 .5 0 0 1 .5 .5a.5 .5 0 0 1 -.5 .5a.5 .5 0 0 1 -.5 -.5a.5 .5 0 0 1 .5 -.5zM12.5 16a.5 .5 0 0 1 .5 .5a.5 .5 0 0 1 -.5 .5a.5 .5 0 0 1 -.5 -.5a.5 .5 0 0 1 .5 -.5zM21.5 16a.5 .5 0 0 1 .5 .5a.5 .5 0 0 1 -.5 .5a.5 .5 0 0 1 -.5 -.5a.5 .5 0 0 1 .5 -.5zM22.5 16a.5 .5 0 0 1 .5 .5a.5 .5 0 0 1 -.5 .5a.5 .5 0 0 1 -.5 -.5a.5 .5 0 0 1 .5 -.5zM23.5 16a.5 .5 0 0 1 .5 .5a.5 .5 0 0 1 -.5 .5a.5 .5 0 0 1 -.5 -.5a.5 .5 0 0 1 .5 -.5zM25.5 16a.5 .5 0 0 1 .5 .5a.5 .5 0 0 1 -.5 .5a.5 .5 0 0 1 -.5 -.5a.5 .5 0 0 1 .5 -.5zM26.5 16a.5 .5 0 0 1 .5 .5a.5 .5 0 0 1 -.5 .5a.5 .5 0 0 1 -.5 -.5a.5 .5 0 0 1 .5 -.5zM29.5 16a.5 .5 0 0 1 .5 .5a.5 .5 0 0 1 -.5 .5a.5 .5 0 0 1 -.5 -.5a.5 .5 0 0 1 .5 -.5zM30.5 16a.5 .5 0 0 1 .5 .5a.5 .5 0 0 1 -.5 .5a.5 .5 0 0 1 -.5 -.5a.5 .5 0 0 1 .5 -.5zM31.5 16a.5 .5 0 0 1 .5 .5a.5 .5 0 0 1 -.5 .5a.5 .5 0 0 1 -.5 -.5a.5 .5 0 0 1 .5 -.5zM1.5 17a.5 .5 0 0 1 .5 .5a.5 .5 0 0 1 -.5 .5a.5 .5 0 0 1 -.5 -.5a.5 .5 0 0 1 .5 -.5zM9.5 17a.5 .5 0 0 1 .5 .5a.5 .5 0 0 1 -.5 .5a.5 .5 0 0 1 -.5 -.5a.5 .5 0 0 1 .5 -.5zM10.5 17a.5 .5 0 0 1 .5 .5a.5 .5 0 0 1 -.5 .5a.5 .5 0 0 1 -.5 -.5a.5 .5 0 0 1 .5 -.5zM12.5 17a.5 .5 0 0 1 .5 .5a.5 .5 0 0 1 -.5 .5a.5 .5 0 0 1 -.5 -.5a.5 .5 0 0 1 .5 -.5zM15.5 17a.5 .5 0 0 1 .5 .5a.5 .5 0 0 1 -.5 .5a.5 .5 0 0 1 -.5 -.5a.5 .5 0 0 1 .5 -.5zM16.5 17a.5 .5 0 0 1 .5 .5a.5 .5 0 0 1 -.5 .5a.5 .5 0 0 1 -.5 -.5a.5 .5 0 0 1 .5 -.5zM18.5 17a.5 .5 0 0 1 .5 .5a.5 .5 0 0 1 -.5 .5a.5 .5 0 0 1 -.5 -.5a.5 .5 0 0 1 .5 -.5zM20.5 17a.5 .5 0 0 1 .5 .5a.5 .5 0 0 1 -.5 .5a.5 .5 0 0 1 -.5 -.5a.5 .5 0 0 1 .5 -.5zM26.5 17a.5 .5 0 0 1 .5 .5a.5 .5 0 0 1 -.5 .5a.5 .5 0 0 1 -.5 -.5a.5 .5 0 0 1 .5 -.5zM28.5 17a.5 .5 0 0 1 .5 .5a.5 .5 0 0 1 -.5 .5a.5 .5 0 0 1 -.5 -.5a.5 .5 0 0 1 .5 -.5zM29.5 17a.5 .5 0 0 1 .5 .5a.5 .5 0 0 1 -.5 .5a.5 .5 0 0 1 -.5 -.5a.5 .5 0 0 1 .5 -.5zM30.5 17a.5 .5 0 0 1 .5 .5a.5 .5 0 0 1 -.5 .5a.5 .5 0 0 1 -.5 -.5a.5 .5 0 0 1 .5 -.5zM32.5 17a.5 .5 0 0 1 .5 .5a.5 .5 0 0 1 -.5 .5a.5 .5 0 0 1 -.5 -.5a.5 .5 0 0 1 .5 -.5zM33.5 17a.5 .5 0 0 1 .5 .5a.5 .5 0 0 1 -.5 .5a.5 .5 0 0 1 -.5 -.5a.5 .5 0 0 1 .5 -.5zM5.5 18a.5 .5 0 0 1 .5 .5a.5 .5 0 0 1 -.5 .5a.5 .5 0 0 1 -.5 -.5a.5 .5 0 0 1 .5 -.5zM6.5 18a.5 .5 0 0 1 .5 .5a.5 .5 0 0 1 -.5 .5a.5 .5 0 0 1 -.5 -.5a.5 .5 0 0 1 .5 -.5zM10.5 18a.5 .5 0 0 1 .5 .5a.5 .5 0 0 1 -.5 .5a.5 .5 0 0 1 -.5 -.5a.5 .5 0 0 1 .5 -.5zM12.5 18a.5 .5 0 0 1 .5 .5a.5 .5 0 0 1 -.5 .5a.5 .5 0 0 1 -.5 -.5a.5 .5 0 0 1 .5 -.5zM13.5 18a.5 .5 0 0 1 .5 .5a.5 .5 0 0 1 -.5 .5a.5 .5 0 0 1 -.5 -.5a.5 .5 0 0 1 .5 -.5zM14.5 18a.5 .5 0 0 1 .5 .5a.5 .5 0 0 1 -.5 .5a.5 .5 0 0 1 -.5 -.5a.5 .5 0 0 1 .5 -.5zM18.5 18a.5 .5 0 0 1 .5 .5a.5 .5 0 0 1 -.5 .5a.5 .5 0 0 1 -.5 -.5a.5 .5 0 0 1 .5 -.5zM20.5 18a.5 .5 0 0 1 .5 .5a.5 .5 0 0 1 -.5 .5a.5 .5 0 0 1 -.5 -.5a.5 .5 0 0 1 .5 -.5zM21.5 18a.5 .5 0 0 1 .5 .5a.5 .5 0 0 1 -.5 .5a.5 .5 0 0 1 -.5 -.5a.5 .5 0 0 1 .5 -.5zM24.5 18a.5 .5 0 0 1 .5 .5a.5 .5 0 0 1 -.5 .5a.5 .5 0 0 1 -.5 -.5a.5 .5 0 0 1 .5 -.5zM25.5 18a.5 .5 0 0 1 .5 .5a.5 .5 0 0 1 -.5 .5a.5 .5 0 0 1 -.5 -.5a.5 .5 0 0 1 .5 -.5zM33.5 18a.5 .5 0 0 1 .5 .5a.5 .5 0 0 1 -.5 .5a.5 .5 0 0 1 -.5 -.5a.5 .5 0 0 1 .5 -.5zM3.5 19a.5 .5 0 0 1 .5 .5a.5 .5 0 0 1 -.5 .5a.5 .5 0 0 1 -.5 -.5a.5 .5 0 0 1 .5 -.5zM4.5 19a.5 .5 0 0 1 .5 .5a.5 .5 0 0 1 -.5 .5a.5 .5 0 0 1 -.5 -.5a.5 .5 0 0 1 .5 -.5zM5.5 19a.5 .5 0 0 1 .5 .5a.5 .5 0 0 1 -.5 .5a.5 .5 0 0 1 -.5 -.5a.5 .5 0 0 1 .5 -.5zM6.5 19a.5 .5 0 0 1 .5 .5a.5 .5 0 0 1 -.5 .5a.5 .5 0 0 1 -.5 -.5a.5 .5 0 0 1 .5 -.5zM7.5 19a.5 .5 0 0 1 .5 .5a.5 .5 0 0 1 -.5 .5a.5 .5 0 0 1 -.5 -.5a.5 .5 0 0 1 .5 -.5zM10.5 19a.5 .5 0 0 1 .5 .5a.5 .5 0 0 1 -.5 .5a.5 .5 0 0 1 -.5 -.5a.5 .5 0 0 1 .5 -.5zM14.5 19a.5 .5 0 0 1 .5 .5a.5 .5 0 0 1 -.5 .5a.5 .5 0 0 1 -.5 -.5a.5 .5 0 0 1 .5 -.5zM15.5 19a.5 .5 0 0 1 .5 .5a.5 .5 0 0 1 -.5 .5a.5 .5 0 0 1 -.5 -.5a.5 .5 0 0 1 .5 -.5zM20.5 19a.5 .5 0 0 1 .5 .5a.5 .5 0 0 1 -.5 .5a.5 .5 0 0 1 -.5 -.5a.5 .5 0 0 1 .5 -.5zM21.5 19a.5 .5 0 0 1 .5 .5a.5 .5 0 0 1 -.5 .5a.5 .5 0 0 1 -.5 -.5a.5 .5 0 0 1 .5 -.5zM22.5 19a.5 .5 0 0 1 .5 .5a.5 .5 0 0 1 -.5 .5a.5 .5 0 0 1 -.5 -.5a.5 .5 0 0 1 .5 -.5zM23.5 19a.5 .5 0 0 1 .5 .5a.5 .5 0 0 1 -.5 .5a.5 .5 0 0 1 -.5 -.5a.5 .5 0 0 1 .5 -.5zM31.5 19a.5 .5 0 0 1 .5 .5a.5 .5 0 0 1 -.5 .5a.5 .5 0 0 1 -.5 -.5a.5 .5 0 0 1 .5 -.5zM32.5 19a.5 .5 0 0 1 .5 .5a.5 .5 0 0 1 -.5 .5a.5 .5 0 0 1 -.5 -.5a.5 .5 0 0 1 .5 -.5zM4.5 20a.5 .5 0 0 1 .5 .5a.5 .5 0 0 1 -.5 .5a.5 .5 0 0 1 -.5 -.5a.5 .5 0 0 1 .5 -.5zM5.5 20a.5 .5 0 0 1 .5 .5a.5 .5 0 0 1 -.5 .5a.5 .5 0 0 1 -.5 -.5a.5 .5 0 0 1 .5 -.5zM8.5 20a.5 .5 0 0 1 .5 .5a.5 .5 0 0 1 -.5 .5a.5 .5 0 0 1 -.5 -.5a.5 .5 0 0 1 .5 -.5zM11.5 20a.5 .5 0 0 1 .5 .5a.5 .5 0 0 1 -.5 .5a.5 .5 0 0 1 -.5 -.5a.5 .5 0 0 1 .5 -.5zM12.5 20a.5 .5 0 0 1 .5 .5a.5 .5 0 0 1 -.5 .5a.5 .5 0 0 1 -.5 -.5a.5 .5 0 0 1 .5 -.5zM13.5 20a.5 .5 0 0 1 .5 .5a.5 .5 0 0 1 -.5 .5a.5 .5 0 0 1 -.5 -.5a.5 .5 0 0 1 .5 -.5zM15.5 20a.5 .5 0 0 1 .5 .5a.5 .5 0 0 1 -.5 .5a.5 .5 0 0 1 -.5 -.5a.5 .5 0 0 1 .5 -.5zM18.5 20a.5 .5 0 0 1 .5 .5a.5 .5 0 0 1 -.5 .5a.5 .5 0 0 1 -.5 -.5a.5 .5 0 0 1 .5 -.5zM22.5 20a.5 .5 0 0 1 .5 .5a.5 .5 0 0 1 -.5 .5a.5 .5 0 0 1 -.5 -.5a.5 .5 0 0 1 .5 -.5zM24.5 20a.5 .5 0 0 1 .5 .5a.5 .5 0 0 1 -.5 .5a.5 .5 0 0 1 -.5 -.5a.5 .5 0 0 1 .5 -.5zM25.5 20a.5 .5 0 0 1 .5 .5a.5 .5 0 0 1 -.5 .5a.5 .5 0 0 1 -.5 -.5a.5 .5 0 0 1 .5 -.5zM26.5 20a.5 .5 0 0 1 .5 .5a.5 .5 0 0 1 -.5 .5a.5 .5 0 0 1 -.5 -.5a.5 .5 0 0 1 .5 -.5zM29.5 20a.5 .5 0 0 1 .5 .5a.5 .5 0 0 1 -.5 .5a.5 .5 0 0 1 -.5 -.5a.5 .5 0 0 1 .5 -.5zM30.5 20a.5 .5 0 0 1 .5 .5a.5 .5 0 0 1 -.5 .5a.5 .5 0 0 1 -.5 -.5a.5 .5 0 0 1 .5 -.5zM31.5 20a.5 .5 0 0 1 .5 .5a.5 .5 0 0 1 -.5 .5a.5 .5 0 0 1 -.5 -.5a.5 .5 0 0 1 .5 -.5zM33.5 20a.5 .5 0 0 1 .5 .5a.5 .5 0 0 1 -.5 .5a.5 .5 0 0 1 -.5 -.5a.5 .5 0 0 1 .5 -.5zM3.5 21a.5 .5 0 0 1 .5 .5a.5 .5 0 0 1 -.5 .5a.5 .5 0 0 1 -.5 -.5a.5 .5 0 0 1 .5 -.5zM4.5 21a.5 .5 0 0 1 .5 .5a.5 .5 0 0 1 -.5 .5a.5 .5 0 0 1 -.5 -.5a.5 .5 0 0 1 .5 -.5zM5.5 21a.5 .5 0 0 1 .5 .5a.5 .5 0 0 1 -.5 .5a.5 .5 0 0 1 -.5 -.5a.5 .5 0 0 1 .5 -.5zM7.5 21a.5 .5 0 0 1 .5 .5a.5 .5 0 0 1 -.5 .5a.5 .5 0 0 1 -.5 -.5a.5 .5 0 0 1 .5 -.5zM8.5 21a.5 .5 0 0 1 .5 .5a.5 .5 0 0 1 -.5 .5a.5 .5 0 0 1 -.5 -.5a.5 .5 0 0 1 .5 -.5zM10.5 21a.5 .5 0 0 1 .5 .5a.5 .5 0 0 1 -.5 .5a.5 .5 0 0 1 -.5 -.5a.5 .5 0 0 1 .5 -.5zM11.5 21a.5 .5 0 0 1 .5 .5a.5 .5 0 0 1 -.5 .5a.5 .5 0 0 1 -.5 -.5a.5 .5 0 0 1 .5 -.5zM12.5 21a.5 .5 0 0 1 .5 .5a.5 .5 0 0 1 -.5 .5a.5 .5 0 0 1 -.5 -.5a.5 .5 0 0 1 .5 -.5zM14.5 21a.5 .5 0 0 1 .5 .5a.5 .5 0 0 1 -.5 .5a.5 .5 0 0 1 -.5 -.5a.5 .5 0 0 1 .5 -.5zM15.5 21a.5 .5 0 0 1 .5 .5a.5 .5 0 0 1 -.5 .5a.5 .5 0 0 1 -.5 -.5a.5 .5 0 0 1 .5 -.5zM18.5 21a.5 .5 0 0 1 .5 .5a.5 .5 0 0 1 -.5 .5a.5 .5 0 0 1 -.5 -.5a.5 .5 0 0 1 .5 -.5zM19.5 21a.5 .5 0 0 1 .5 .5a.5 .5 0 0 1 -.5 .5a.5 .5 0 0 1 -.5 -.5a.5 .5 0 0 1 .5 -.5zM20.5 21a.5 .5 0 0 1 .5 .5a.5 .5 0 0 1 -.5 .5a.5 .5 0 0 1 -.5 -.5a.5 .5 0 0 1 .5 -.5zM25.5 21a.5 .5 0 0 1 .5 .5a.5 .5 0 0 1 -.5 .5a.5 .5 0 0 1 -.5 -.5a.5 .5 0 0 1 .5 -.5zM28.5 21a.5 .5 0 0 1 .5 .5a.5 .5 0 0 1 -.5 .5a.5 .5 0 0 1 -.5 -.5a.5 .5 0 0 1 .5 -.5zM29.5 21a.5 .5 0 0 1 .5 .5a.5 .5 0 0 1 -.5 .5a.5 .5 0 0 1 -.5 -.5a.5 .5 0 0 1 .5 -.5zM30.5 21a.5 .5 0 0 1 .5 .5a.5 .5 0 0 1 -.5 .5a.5 .5 0 0 1 -.5 -.5a.5 .5 0 0 1 .5 -.5zM32.5 21a.5 .5 0 0 1 .5 .5a.5 .5 0 0 1 -.5 .5a.5 .5 0 0 1 -.5 -.5a.5 .5 0 0 1 .5 -.5zM33.5 21a.5 .5 0 0 1 .5 .5a.5 .5 0 0 1 -.5 .5a.5 .5 0 0 1 -.5 -.5a.5 .5 0 0 1 .5 -.5zM1.5 22a.5 .5 0 0 1 .5 .5a.5 .5 0 0 1 -.5 .5a.5 .5 0 0 1 -.5 -.5a.5 .5 0 0 1 .5 -.5zM2.5 22a.5 .5 0 0 1 .5 .5a.5 .5 0 0 1 -.5 .5a.5 .5 0 0 1 -.5 -.5a.5 .5 0 0 1 .5 -.5zM4.5 22a.5 .5 0 0 1 .5 .5a.5 .5 0 0 1 -.5 .5a.5 .5 0 0 1 -.5 -.5a.5 .5 0 0 1 .5 -.5zM5.5 22a.5 .5 0 0 1 .5 .5a.5 .5 0 0 1 -.5 .5a.5 .5 0 0 1 -.5 -.5a.5 .5 0 0 1 .5 -.5zM6.5 22a.5 .5 0 0 1 .5 .5a.5 .5 0 0 1 -.5 .5a.5 .5 0 0 1 -.5 -.5a.5 .5 0 0 1 .5 -.5zM8.5 22a.5 .5 0 0 1 .5 .5a.5 .5 0 0 1 -.5 .5a.5 .5 0 0 1 -.5 -.5a.5 .5 0 0 1 .5 -.5zM12.5 22a.5 .5 0 0 1 .5 .5a.5 .5 0 0 1 -.5 .5a.5 .5 0 0 1 -.5 -.5a.5 .5 0 0 1 .5 -.5zM13.5 22a.5 .5 0 0 1 .5 .5a.5 .5 0 0 1 -.5 .5a.5 .5 0 0 1 -.5 -.5a.5 .5 0 0 1 .5 -.5zM17.5 22a.5 .5 0 0 1 .5 .5a.5 .5 0 0 1 -.5 .5a.5 .5 0 0 1 -.5 -.5a.5 .5 0 0 1 .5 -.5zM20.5 22a.5 .5 0 0 1 .5 .5a.5 .5 0 0 1 -.5 .5a.5 .5 0 0 1 -.5 -.5a.5 .5 0 0 1 .5 -.5zM28.5 22a.5 .5 0 0 1 .5 .5a.5 .5 0 0 1 -.5 .5a.5 .5 0 0 1 -.5 -.5a.5 .5 0 0 1 .5 -.5zM30.5 22a.5 .5 0 0 1 .5 .5a.5 .5 0 0 1 -.5 .5a.5 .5 0 0 1 -.5 -.5a.5 .5 0 0 1 .5 -.5zM31.5 22a.5 .5 0 0 1 .5 .5a.5 .5 0 0 1 -.5 .5a.5 .5 0 0 1 -.5 -.5a.5 .5 0 0 1 .5 -.5zM33.5 22a.5 .5 0 0 1 .5 .5a.5 .5 0 0 1 -.5 .5a.5 .5 0 0 1 -.5 -.5a.5 .5 0 0 1 .5 -.5zM1.5 23a.5 .5 0 0 1 .5 .5a.5 .5 0 0 1 -.5 .5a.5 .5 0 0 1 -.5 -.5a.5 .5 0 0 1 .5 -.5zM4.5 23a.5 .5 0 0 1 .5 .5a.5 .5 0 0 1 -.5 .5a.5 .5 0 0 1 -.5 -.5a.5 .5 0 0 1 .5 -.5zM10.5 23a.5 .5 0 0 1 .5 .5a.5 .5 0 0 1 -.5 .5a.5 .5 0 0 1 -.5 -.5a.5 .5 0 0 1 .5 -.5zM11.5 23a.5 .5 0 0 1 .5 .5a.5 .5 0 0 1 -.5 .5a.5 .5 0 0 1 -.5 -.5a.5 .5 0 0 1 .5 -.5zM12.5 23a.5 .5 0 0 1 .5 .5a.5 .5 0 0 1 -.5 .5a.5 .5 0 0 1 -.5 -.5a.5 .5 0 0 1 .5 -.5zM13.5 23a.5 .5 0 0 1 .5 .5a.5 .5 0 0 1 -.5 .5a.5 .5 0 0 1 -.5 -.5a.5 .5 0 0 1 .5 -.5zM16.5 23a.5 .5 0 0 1 .5 .5a.5 .5 0 0 1 -.5 .5a.5 .5 0 0 1 -.5 -.5a.5 .5 0 0 1 .5 -.5zM17.5 23a.5 .5 0 0 1 .5 .5a.5 .5 0 0 1 -.5 .5a.5 .5 0 0 1 -.5 -.5a.5 .5 0 0 1 .5 -.5zM18.5 23a.5 .5 0 0 1 .5 .5a.5 .5 0 0 1 -.5 .5a.5 .5 0 0 1 -.5 -.5a.5 .5 0 0 1 .5 -.5zM20.5 23a.5 .5 0 0 1 .5 .5a.5 .5 0 0 1 -.5 .5a.5 .5 0 0 1 -.5 -.5a.5 .5 0 0 1 .5 -.5zM23.5 23a.5 .5 0 0 1 .5 .5a.5 .5 0 0 1 -.5 .5a.5 .5 0 0 1 -.5 -.5a.5 .5 0 0 1 .5 -.5zM24.5 23a.5 .5 0 0 1 .5 .5a.5 .5 0 0 1 -.5 .5a.5 .5 0 0 1 -.5 -.5a.5 .5 0 0 1 .5 -.5zM25.5 23a.5 .5 0 0 1 .5 .5a.5 .5 0 0 1 -.5 .5a.5 .5 0 0 1 -.5 -.5a.5 .5 0 0 1 .5 -.5zM29.5 23a.5 .5 0 0 1 .5 .5a.5 .5 0 0 1 -.5 .5a.5 .5 0 0 1 -.5 -.5a.5 .5 0 0 1 .5 -.5zM30.5 23a.5 .5 0 0 1 .5 .5a.5 .5 0 0 1 -.5 .5a.5 .5 0 0 1 -.5 -.5a.5 .5 0 0 1 .5 -.5zM32.5 23a.5 .5 0 0 1 .5 .5a.5 .5 0 0 1 -.5 .5a.5 .5 0 0 1 -.5 -.5a.5 .5 0 0 1 .5 -.5zM1.5 24a.5 .5 0 0 1 .5 .5a.5 .5 0 0 1 -.5 .5a.5 .5 0 0 1 -.5 -.5a.5 .5 0 0 1 .5 -.5zM4.5 24a.5 .5 0 0 1 .5 .5a.5 .5 0 0 1 -.5 .5a.5 .5 0 0 1 -.5 -.5a.5 .5 0 0 1 .5 -.5zM11.5 24a.5 .5 0 0 1 .5 .5a.5 .5 0 0 1 -.5 .5a.5 .5 0 0 1 -.5 -.5a.5 .5 0 0 1 .5 -.5zM14.5 24a.5 .5 0 0 1 .5 .5a.5 .5 0 0 1 -.5 .5a.5 .5 0 0 1 -.5 -.5a.5 .5 0 0 1 .5 -.5zM16.5 24a.5 .5 0 0 1 .5 .5a.5 .5 0 0 1 -.5 .5a.5 .5 0 0 1 -.5 -.5a.5 .5 0 0 1 .5 -.5zM18.5 24a.5 .5 0 0 1 .5 .5a.5 .5 0 0 1 -.5 .5a.5 .5 0 0 1 -.5 -.5a.5 .5 0 0 1 .5 -.5zM24.5 24a.5 .5 0 0 1 .5 .5a.5 .5 0 0 1 -.5 .5a.5 .5 0 0 1 -.5 -.5a.5 .5 0 0 1 .5 -.5zM30.5 24a.5 .5 0 0 1 .5 .5a.5 .5 0 0 1 -.5 .5a.5 .5 0 0 1 -.5 -.5a.5 .5 0 0 1 .5 -.5zM31.5 24a.5 .5 0 0 1 .5 .5a.5 .5 0 0 1 -.5 .5a.5 .5 0 0 1 -.5 -.5a.5 .5 0 0 1 .5 -.5zM32.5 24a.5 .5 0 0 1 .5 .5a.5 .5 0 0 1 -.5 .5a.5 .5 0 0 1 -.5 -.5a.5 .5 0 0 1 .5 -.5zM1.5 25a.5 .5 0 0 1 .5 .5a.5 .5 0 0 1 -.5 .5a.5 .5 0 0 1 -.5 -.5a.5 .5 0 0 1 .5 -.5zM3.5 25a.5 .5 0 0 1 .5 .5a.5 .5 0 0 1 -.5 .5a.5 .5 0 0 1 -.5 -.5a.5 .5 0 0 1 .5 -.5zM4.5 25a.5 .5 0 0 1 .5 .5a.5 .5 0 0 1 -.5 .5a.5 .5 0 0 1 -.5 -.5a.5 .5 0 0 1 .5 -.5zM13.5 25a.5 .5 0 0 1 .5 .5a.5 .5 0 0 1 -.5 .5a.5 .5 0 0 1 -.5 -.5a.5 .5 0 0 1 .5 -.5zM14.5 25a.5 .5 0 0 1 .5 .5a.5 .5 0 0 1 -.5 .5a.5 .5 0 0 1 -.5 -.5a.5 .5 0 0 1 .5 -.5zM15.5 25a.5 .5 0 0 1 .5 .5a.5 .5 0 0 1 -.5 .5a.5 .5 0 0 1 -.5 -.5a.5 .5 0 0 1 .5 -.5zM16.5 25a.5 .5 0 0 1 .5 .5a.5 .5 0 0 1 -.5 .5a.5 .5 0 0 1 -.5 -.5a.5 .5 0 0 1 .5 -.5zM19.5 25a.5 .5 0 0 1 .5 .5a.5 .5 0 0 1 -.5 .5a.5 .5 0 0 1 -.5 -.5a.5 .5 0 0 1 .5 -.5zM20.5 25a.5 .5 0 0 1 .5 .5a.5 .5 0 0 1 -.5 .5a.5 .5 0 0 1 -.5 -.5a.5 .5 0 0 1 .5 -.5zM23.5 25a.5 .5 0 0 1 .5 .5a.5 .5 0 0 1 -.5 .5a.5 .5 0 0 1 -.5 -.5a.5 .5 0 0 1 .5 -.5zM24.5 25a.5 .5 0 0 1 .5 .5a.5 .5 0 0 1 -.5 .5a.5 .5 0 0 1 -.5 -.5a.5 .5 0 0 1 .5 -.5zM25.5 25a.5 .5 0 0 1 .5 .5a.5 .5 0 0 1 -.5 .5a.5 .5 0 0 1 -.5 -.5a.5 .5 0 0 1 .5 -.5zM26.5 25a.5 .5 0 0 1 .5 .5a.5 .5 0 0 1 -.5 .5a.5 .5 0 0 1 -.5 -.5a.5 .5 0 0 1 .5 -.5zM27.5 25a.5 .5 0 0 1 .5 .5a.5 .5 0 0 1 -.5 .5a.5 .5 0 0 1 -.5 -.5a.5 .5 0 0 1 .5 -.5zM28.5 25a.5 .5 0 0 1 .5 .5a.5 .5 0 0 1 -.5 .5a.5 .5 0 0 1 -.5 -.5a.5 .5 0 0 1 .5 -.5zM29.5 25a.5 .5 0 0 1 .5 .5a.5 .5 0 0 1 -.5 .5a.5 .5 0 0 1 -.5 -.5a.5 .5 0 0 1 .5 -.5zM30.5 25a.5 .5 0 0 1 .5 .5a.5 .5 0 0 1 -.5 .5a.5 .5 0 0 1 -.5 -.5a.5 .5 0 0 1 .5 -.5zM33.5 25a.5 .5 0 0 1 .5 .5a.5 .5 0 0 1 -.5 .5a.5 .5 0 0 1 -.5 -.5a.5 .5 0 0 1 .5 -.5zM12.5 26a.5 .5 0 0 1 .5 .5a.5 .5 0 0 1 -.5 .5a.5 .5 0 0 1 -.5 -.5a.5 .5 0 0 1 .5 -.5zM13.5 26a.5 .5 0 0 1 .5 .5a.5 .5 0 0 1 -.5 .5a.5 .5 0 0 1 -.5 -.5a.5 .5 0 0 1 .5 -.5zM16.5 26a.5 .5 0 0 1 .5 .5a.5 .5 0 0 1 -.5 .5a.5 .5 0 0 1 -.5 -.5a.5 .5 0 0 1 .5 -.5zM17.5 26a.5 .5 0 0 1 .5 .5a.5 .5 0 0 1 -.5 .5a.5 .5 0 0 1 -.5 -.5a.5 .5 0 0 1 .5 -.5zM18.5 26a.5 .5 0 0 1 .5 .5a.5 .5 0 0 1 -.5 .5a.5 .5 0 0 1 -.5 -.5a.5 .5 0 0 1 .5 -.5zM22.5 26a.5 .5 0 0 1 .5 .5a.5 .5 0 0 1 -.5 .5a.5 .5 0 0 1 -.5 -.5a.5 .5 0 0 1 .5 -.5zM24.5 26a.5 .5 0 0 1 .5 .5a.5 .5 0 0 1 -.5 .5a.5 .5 0 0 1 -.5 -.5a.5 .5 0 0 1 .5 -.5zM25.5 26a.5 .5 0 0 1 .5 .5a.5 .5 0 0 1 -.5 .5a.5 .5 0 0 1 -.5 -.5a.5 .5 0 0 1 .5 -.5zM29.5 26a.5 .5 0 0 1 .5 .5a.5 .5 0 0 1 -.5 .5a.5 .5 0 0 1 -.5 -.5a.5 .5 0 0 1 .5 -.5zM30.5 26a.5 .5 0 0 1 .5 .5a.5 .5 0 0 1 -.5 .5a.5 .5 0 0 1 -.5 -.5a.5 .5 0 0 1 .5 -.5zM31.5 26a.5 .5 0 0 1 .5 .5a.5 .5 0 0 1 -.5 .5a.5 .5 0 0 1 -.5 -.5a.5 .5 0 0 1 .5 -.5zM32.5 26a.5 .5 0 0 1 .5 .5a.5 .5 0 0 1 -.5 .5a.5 .5 0 0 1 -.5 -.5a.5 .5 0 0 1 .5 -.5zM33.5 26a.5 .5 0 0 1 .5 .5a.5 .5 0 0 1 -.5 .5a.5 .5 0 0 1 -.5 -.5a.5 .5 0 0 1 .5 -.5zM10.5 27a.5 .5 0 0 1 .5 .5a.5 .5 0 0 1 -.5 .5a.5 .5 0 0 1 -.5 -.5a.5 .5 0 0 1 .5 -.5zM11.5 27a.5 .5 0 0 1 .5 .5a.5 .5 0 0 1 -.5 .5a.5 .5 0 0 1 -.5 -.5a.5 .5 0 0 1 .5 -.5zM14.5 27a.5 .5 0 0 1 .5 .5a.5 .5 0 0 1 -.5 .5a.5 .5 0 0 1 -.5 -.5a.5 .5 0 0 1 .5 -.5zM15.5 27a.5 .5 0 0 1 .5 .5a.5 .5 0 0 1 -.5 .5a.5 .5 0 0 1 -.5 -.5a.5 .5 0 0 1 .5 -.5zM16.5 27a.5 .5 0 0 1 .5 .5a.5 .5 0 0 1 -.5 .5a.5 .5 0 0 1 -.5 -.5a.5 .5 0 0 1 .5 -.5zM18.5 27a.5 .5 0 0 1 .5 .5a.5 .5 0 0 1 -.5 .5a.5 .5 0 0 1 -.5 -.5a.5 .5 0 0 1 .5 -.5zM20.5 27a.5 .5 0 0 1 .5 .5a.5 .5 0 0 1 -.5 .5a.5 .5 0 0 1 -.5 -.5a.5 .5 0 0 1 .5 -.5zM22.5 27a.5 .5 0 0 1 .5 .5a.5 .5 0 0 1 -.5 .5a.5 .5 0 0 1 -.5 -.5a.5 .5 0 0 1 .5 -.5zM24.5 27a.5 .5 0 0 1 .5 .5a.5 .5 0 0 1 -.5 .5a.5 .5 0 0 1 -.5 -.5a.5 .5 0 0 1 .5 -.5zM25.5 27a.5 .5 0 0 1 .5 .5a.5 .5 0 0 1 -.5 .5a.5 .5 0 0 1 -.5 -.5a.5 .5 0 0 1 .5 -.5zM29.5 27a.5 .5 0 0 1 .5 .5a.5 .5 0 0 1 -.5 .5a.5 .5 0 0 1 -.5 -.5a.5 .5 0 0 1 .5 -.5zM31.5 27a.5 .5 0 0 1 .5 .5a.5 .5 0 0 1 -.5 .5a.5 .5 0 0 1 -.5 -.5a.5 .5 0 0 1 .5 -.5zM32.5 27a.5 .5 0 0 1 .5 .5a.5 .5 0 0 1 -.5 .5a.5 .5 0 0 1 -.5 -.5a.5 .5 0 0 1 .5 -.5zM10.5 28a.5 .5 0 0 1 .5 .5a.5 .5 0 0 1 -.5 .5a.5 .5 0 0 1 -.5 -.5a.5 .5 0 0 1 .5 -.5zM11.5 28a.5 .5 0 0 1 .5 .5a.5 .5 0 0 1 -.5 .5a.5 .5 0 0 1 -.5 -.5a.5 .5 0 0 1 .5 -.5zM15.5 28a.5 .5 0 0 1 .5 .5a.5 .5 0 0 1 -.5 .5a.5 .5 0 0 1 -.5 -.5a.5 .5 0 0 1 .5 -.5zM17.5 28a.5 .5 0 0 1 .5 .5a.5 .5 0 0 1 -.5 .5a.5 .5 0 0 1 -.5 -.5a.5 .5 0 0 1 .5 -.5zM18.5 28a.5 .5 0 0 1 .5 .5a.5 .5 0 0 1 -.5 .5a.5 .5 0 0 1 -.5 -.5a.5 .5 0 0 1 .5 -.5zM19.5 28a.5 .5 0 0 1 .5 .5a.5 .5 0 0 1 -.5 .5a.5 .5 0 0 1 -.5 -.5a.5 .5 0 0 1 .5 -.5zM20.5 28a.5 .5 0 0 1 .5 .5a.5 .5 0 0 1 -.5 .5a.5 .5 0 0 1 -.5 -.5a.5 .5 0 0 1 .5 -.5zM22.5 28a.5 .5 0 0 1 .5 .5a.5 .5 0 0 1 -.5 .5a.5 .5 0 0 1 -.5 -.5a.5 .5 0 0 1 .5 -.5zM23.5 28a.5 .5 0 0 1 .5 .5a.5 .5 0 0 1 -.5 .5a.5 .5 0 0 1 -.5 -.5a.5 .5 0 0 1 .5 -.5zM24.5 28a.5 .5 0 0 1 .5 .5a.5 .5 0 0 1 -.5 .5a.5 .5 0 0 1 -.5 -.5a.5 .5 0 0 1 .5 -.5zM25.5 28a.5 .5 0 0 1 .5 .5a.5 .5 0 0 1 -.5 .5a.5 .5 0 0 1 -.5 -.5a.5 .5 0 0 1 .5 -.5zM29.5 28a.5 .5 0 0 1 .5 .5a.5 .5 0 0 1 -.5 .5a.5 .5 0 0 1 -.5 -.5a.5 .5 0 0 1 .5 -.5zM30.5 28a.5 .5 0 0 1 .5 .5a.5 .5 0 0 1 -.5 .5a.5 .5 0 0 1 -.5 -.5a.5 .5 0 0 1 .5 -.5zM31.5 28a.5 .5 0 0 1 .5 .5a.5 .5 0 0 1 -.5 .5a.5 .5 0 0 1 -.5 -.5a.5 .5 0 0 1 .5 -.5zM32.5 28a.5 .5 0 0 1 .5 .5a.5 .5 0 0 1 -.5 .5a.5 .5 0 0 1 -.5 -.5a.5 .5 0 0 1 .5 -.5zM33.5 28a.5 .5 0 0 1 .5 .5a.5 .5 0 0 1 -.5 .5a.5 .5 0 0 1 -.5 -.5a.5 .5 0 0 1 .5 -.5zM9.5 29a.5 .5 0 0 1 .5 .5a.5 .5 0 0 1 -.5 .5a.5 .5 0 0 1 -.5 -.5a.5 .5 0 0 1 .5 -.5zM11.5 29a.5 .5 0 0 1 .5 .5a.5 .5 0 0 1 -.5 .5a.5 .5 0 0 1 -.5 -.5a.5 .5 0 0 1 .5 -.5zM13.5 29a.5 .5 0 0 1 .5 .5a.5 .5 0 0 1 -.5 .5a.5 .5 0 0 1 -.5 -.5a.5 .5 0 0 1 .5 -.5zM14.5 29a.5 .5 0 0 1 .5 .5a.5 .5 0 0 1 -.5 .5a.5 .5 0 0 1 -.5 -.5a.5 .5 0 0 1 .5 -.5zM15.5 29a.5 .5 0 0 1 .5 .5a.5 .5 0 0 1 -.5 .5a.5 .5 0 0 1 -.5 -.5a.5 .5 0 0 1 .5 -.5zM16.5 29a.5 .5 0 0 1 .5 .5a.5 .5 0 0 1 -.5 .5a.5 .5 0 0 1 -.5 -.5a.5 .5 0 0 1 .5 -.5zM20.5 29a.5 .5 0 0 1 .5 .5a.5 .5 0 0 1 -.5 .5a.5 .5 0 0 1 -.5 -.5a.5 .5 0 0 1 .5 -.5zM22.5 29a.5 .5 0 0 1 .5 .5a.5 .5 0 0 1 -.5 .5a.5 .5 0 0 1 -.5 -.5a.5 .5 0 0 1 .5 -.5zM25.5 29a.5 .5 0 0 1 .5 .5a.5 .5 0 0 1 -.5 .5a.5 .5 0 0 1 -.5 -.5a.5 .5 0 0 1 .5 -.5zM26.5 29a.5 .5 0 0 1 .5 .5a.5 .5 0 0 1 -.5 .5a.5 .5 0 0 1 -.5 -.5a.5 .5 0 0 1 .5 -.5zM27.5 29a.5 .5 0 0 1 .5 .5a.5 .5 0 0 1 -.5 .5a.5 .5 0 0 1 -.5 -.5a.5 .5 0 0 1 .5 -.5zM28.5 29a.5 .5 0 0 1 .5 .5a.5 .5 0 0 1 -.5 .5a.5 .5 0 0 1 -.5 -.5a.5 .5 0 0 1 .5 -.5zM29.5 29a.5 .5 0 0 1 .5 .5a.5 .5 0 0 1 -.5 .5a.5 .5 0 0 1 -.5 -.5a.5 .5 0 0 1 .5 -.5zM32.5 29a.5 .5 0 0 1 .5 .5a.5 .5 0 0 1 -.5 .5a.5 .5 0 0 1 -.5 -.5a.5 .5 0 0 1 .5 -.5zM33.5 29a.5 .5 0 0 1 .5 .5a.5 .5 0 0 1 -.5 .5a.5 .5 0 0 1 -.5 -.5a.5 .5 0 0 1 .5 -.5zM9.5 30a.5 .5 0 0 1 .5 .5a.5 .5 0 0 1 -.5 .5a.5 .5 0 0 1 -.5 -.5a.5 .5 0 0 1 .5 -.5zM10.5 30a.5 .5 0 0 1 .5 .5a.5 .5 0 0 1 -.5 .5a.5 .5 0 0 1 -.5 -.5a.5 .5 0 0 1 .5 -.5zM11.5 30a.5 .5 0 0 1 .5 .5a.5 .5 0 0 1 -.5 .5a.5 .5 0 0 1 -.5 -.5a.5 .5 0 0 1 .5 -.5zM14.5 30a.5 .5 0 0 1 .5 .5a.5 .5 0 0 1 -.5 .5a.5 .5 0 0 1 -.5 -.5a.5 .5 0 0 1 .5 -.5zM16.5 30a.5 .5 0 0 1 .5 .5a.5 .5 0 0 1 -.5 .5a.5 .5 0 0 1 -.5 -.5a.5 .5 0 0 1 .5 -.5zM17.5 30a.5 .5 0 0 1 .5 .5a.5 .5 0 0 1 -.5 .5a.5 .5 0 0 1 -.5 -.5a.5 .5 0 0 1 .5 -.5zM26.5 30a.5 .5 0 0 1 .5 .5a.5 .5 0 0 1 -.5 .5a.5 .5 0 0 1 -.5 -.5a.5 .5 0 0 1 .5 -.5zM29.5 30a.5 .5 0 0 1 .5 .5a.5 .5 0 0 1 -.5 .5a.5 .5 0 0 1 -.5 -.5a.5 .5 0 0 1 .5 -.5zM30.5 30a.5 .5 0 0 1 .5 .5a.5 .5 0 0 1 -.5 .5a.5 .5 0 0 1 -.5 -.5a.5 .5 0 0 1 .5 -.5zM31.5 30a.5 .5 0 0 1 .5 .5a.5 .5 0 0 1 -.5 .5a.5 .5 0 0 1 -.5 -.5a.5 .5 0 0 1 .5 -.5zM32.5 30a.5 .5 0 0 1 .5 .5a.5 .5 0 0 1 -.5 .5a.5 .5 0 0 1 -.5 -.5a.5 .5 0 0 1 .5 -.5zM9.5 31a.5 .5 0 0 1 .5 .5a.5 .5 0 0 1 -.5 .5a.5 .5 0 0 1 -.5 -.5a.5 .5 0 0 1 .5 -.5zM10.5 31a.5 .5 0 0 1 .5 .5a.5 .5 0 0 1 -.5 .5a.5 .5 0 0 1 -.5 -.5a.5 .5 0 0 1 .5 -.5zM11.5 31a.5 .5 0 0 1 .5 .5a.5 .5 0 0 1 -.5 .5a.5 .5 0 0 1 -.5 -.5a.5 .5 0 0 1 .5 -.5zM12.5 31a.5 .5 0 0 1 .5 .5a.5 .5 0 0 1 -.5 .5a.5 .5 0 0 1 -.5 -.5a.5 .5 0 0 1 .5 -.5zM13.5 31a.5 .5 0 0 1 .5 .5a.5 .5 0 0 1 -.5 .5a.5 .5 0 0 1 -.5 -.5a.5 .5 0 0 1 .5 -.5zM16.5 31a.5 .5 0 0 1 .5 .5a.5 .5 0 0 1 -.5 .5a.5 .5 0 0 1 -.5 -.5a.5 .5 0 0 1 .5 -.5zM20.5 31a.5 .5 0 0 1 .5 .5a.5 .5 0 0 1 -.5 .5a.5 .5 0 0 1 -.5 -.5a.5 .5 0 0 1 .5 -.5zM21.5 31a.5 .5 0 0 1 .5 .5a.5 .5 0 0 1 -.5 .5a.5 .5 0 0 1 -.5 -.5a.5 .5 0 0 1 .5 -.5zM24.5 31a.5 .5 0 0 1 .5 .5a.5 .5 0 0 1 -.5 .5a.5 .5 0 0 1 -.5 -.5a.5 .5 0 0 1 .5 -.5zM26.5 31a.5 .5 0 0 1 .5 .5a.5 .5 0 0 1 -.5 .5a.5 .5 0 0 1 -.5 -.5a.5 .5 0 0 1 .5 -.5zM27.5 31a.5 .5 0 0 1 .5 .5a.5 .5 0 0 1 -.5 .5a.5 .5 0 0 1 -.5 -.5a.5 .5 0 0 1 .5 -.5zM31.5 31a.5 .5 0 0 1 .5 .5a.5 .5 0 0 1 -.5 .5a.5 .5 0 0 1 -.5 -.5a.5 .5 0 0 1 .5 -.5zM11.5 32a.5 .5 0 0 1 .5 .5a.5 .5 0 0 1 -.5 .5a.5 .5 0 0 1 -.5 -.5a.5 .5 0 0 1 .5 -.5zM13.5 32a.5 .5 0 0 1 .5 .5a.5 .5 0 0 1 -.5 .5a.5 .5 0 0 1 -.5 -.5a.5 .5 0 0 1 .5 -.5zM14.5 32a.5 .5 0 0 1 .5 .5a.5 .5 0 0 1 -.5 .5a.5 .5 0 0 1 -.5 -.5a.5 .5 0 0 1 .5 -.5zM15.5 32a.5 .5 0 0 1 .5 .5a.5 .5 0 0 1 -.5 .5a.5 .5 0 0 1 -.5 -.5a.5 .5 0 0 1 .5 -.5zM16.5 32a.5 .5 0 0 1 .5 .5a.5 .5 0 0 1 -.5 .5a.5 .5 0 0 1 -.5 -.5a.5 .5 0 0 1 .5 -.5zM17.5 32a.5 .5 0 0 1 .5 .5a.5 .5 0 0 1 -.5 .5a.5 .5 0 0 1 -.5 -.5a.5 .5 0 0 1 .5 -.5zM19.5 32a.5 .5 0 0 1 .5 .5a.5 .5 0 0 1 -.5 .5a.5 .5 0 0 1 -.5 -.5a.5 .5 0 0 1 .5 -.5zM21.5 32a.5 .5 0 0 1 .5 .5a.5 .5 0 0 1 -.5 .5a.5 .5 0 0 1 -.5 -.5a.5 .5 0 0 1 .5 -.5zM22.5 32a.5 .5 0 0 1 .5 .5a.5 .5 0 0 1 -.5 .5a.5 .5 0 0 1 -.5 -.5a.5 .5 0 0 1 .5 -.5zM23.5 32a.5 .5 0 0 1 .5 .5a.5 .5 0 0 1 -.5 .5a.5 .5 0 0 1 -.5 -.5a.5 .5 0 0 1 .5 -.5zM24.5 32a.5 .5 0 0 1 .5 .5a.5 .5 0 0 1 -.5 .5a.5 .5 0 0 1 -.5 -.5a.5 .5 0 0 1 .5 -.5zM31.5 32a.5 .5 0 0 1 .5 .5a.5 .5 0 0 1 -.5 .5a.5 .5 0 0 1 -.5 -.5a.5 .5 0 0 1 .5 -.5zM10.5 33a.5 .5 0 0 1 .5 .5a.5 .5 0 0 1 -.5 .5a.5 .5 0 0 1 -.5 -.5a.5 .5 0 0 1 .5 -.5zM11.5 33a.5 .5 0 0 1 .5 .5a.5 .5 0 0 1 -.5 .5a.5 .5 0 0 1 -.5 -.5a.5 .5 0 0 1 .5 -.5zM13.5 33a.5 .5 0 0 1 .5 .5a.5 .5 0 0 1 -.5 .5a.5 .5 0 0 1 -.5 -.5a.5 .5 0 0 1 .5 -.5zM14.5 33a.5 .5 0 0 1 .5 .5a.5 .5 0 0 1 -.5 .5a.5 .5 0 0 1 -.5 -.5a.5 .5 0 0 1 .5 -.5zM15.5 33a.5 .5 0 0 1 .5 .5a.5 .5 0 0 1 -.5 .5a.5 .5 0 0 1 -.5 -.5a.5 .5 0 0 1 .5 -.5zM19.5 33a.5 .5 0 0 1 .5 .5a.5 .5 0 0 1 -.5 .5a.5 .5 0 0 1 -.5 -.5a.5 .5 0 0 1 .5 -.5zM20.5 33a.5 .5 0 0 1 .5 .5a.5 .5 0 0 1 -.5 .5a.5 .5 0 0 1 -.5 -.5a.5 .5 0 0 1 .5 -.5zM23.5 33a.5 .5 0 0 1 .5 .5a.5 .5 0 0 1 -.5 .5a.5 .5 0 0 1 -.5 -.5a.5 .5 0 0 1 .5 -.5zM24.5 33a.5 .5 0 0 1 .5 .5a.5 .5 0 0 1 -.5 .5a.5 .5 0 0 1 -.5 -.5a.5 .5 0 0 1 .5 -.5zM25.5 33a.5 .5 0 0 1 .5 .5a.5 .5 0 0 1 -.5 .5a.5 .5 0 0 1 -.5 -.5a.5 .5 0 0 1 .5 -.5zM26.5 33a.5 .5 0 0 1 .5 .5a.5 .5 0 0 1 -.5 .5a.5 .5 0 0 1 -.5 -.5a.5 .5 0 0 1 .5 -.5zM31.5 33a.5 .5 0 0 1 .5 .5a.5 .5 0 0 1 -.5 .5a.5 .5 0 0 1 -.5 -.5a.5 .5 0 0 1 .5 -.5zM32.5 33a.5 .5 0 0 1 .5 .5a.5 .5 0 0 1 -.5 .5a.5 .5 0 0 1 -.5 -.5a.5 .5 0 0 1 .5 -.5z" fill="#ffbf00"></path></svg>